<mxfile host="www.draw.io" modified="2020-03-08T14:51:17.118Z" agent="Mozilla/5.0 (Windows NT 10.0; Win64; x64) AppleWebKit/537.36 (KHTML, like Gecko) Chrome/80.0.3987.132 Safari/537.36" etag="haKjpvyrKGsf3AxnjwmJ" version="12.8.1" type="github">
  <diagram id="C5RBs43oDa-KdzZeNtuy" name="Page-1">
    <mxGraphModel dx="1221" dy="645" grid="1" gridSize="10" guides="1" tooltips="1" connect="1" arrows="1" fold="1" page="1" pageScale="1" pageWidth="827" pageHeight="1169" math="0" shadow="0">
      <root>
        <mxCell id="WIyWlLk6GJQsqaUBKTNV-0" />
        <mxCell id="WIyWlLk6GJQsqaUBKTNV-1" parent="WIyWlLk6GJQsqaUBKTNV-0" />
        <mxCell id="WIyWlLk6GJQsqaUBKTNV-3" value="mulai" style="rounded=1;whiteSpace=wrap;html=1;fontSize=12;glass=0;strokeWidth=1;shadow=0;" parent="WIyWlLk6GJQsqaUBKTNV-1" vertex="1">
          <mxGeometry x="370" y="10" width="120" height="40" as="geometry" />
        </mxCell>
        <mxCell id="d1mt9CwGBti9nhYZFLhf-24" value="" style="edgeStyle=orthogonalEdgeStyle;rounded=0;orthogonalLoop=1;jettySize=auto;html=1;" parent="WIyWlLk6GJQsqaUBKTNV-1" source="d1mt9CwGBti9nhYZFLhf-1" target="d1mt9CwGBti9nhYZFLhf-9" edge="1">
          <mxGeometry relative="1" as="geometry" />
        </mxCell>
        <mxCell id="d1mt9CwGBti9nhYZFLhf-1" value="Studi literatur" style="rounded=0;whiteSpace=wrap;html=1;" parent="WIyWlLk6GJQsqaUBKTNV-1" vertex="1">
          <mxGeometry x="370" y="70" width="120" height="60" as="geometry" />
        </mxCell>
        <mxCell id="d1mt9CwGBti9nhYZFLhf-2" value="" style="rounded=0;html=1;jettySize=auto;orthogonalLoop=1;fontSize=11;endArrow=block;endFill=0;endSize=8;strokeWidth=1;shadow=0;labelBackgroundColor=none;edgeStyle=orthogonalEdgeStyle;" parent="WIyWlLk6GJQsqaUBKTNV-1" source="WIyWlLk6GJQsqaUBKTNV-3" target="d1mt9CwGBti9nhYZFLhf-1" edge="1">
          <mxGeometry relative="1" as="geometry">
            <mxPoint x="220" y="120" as="sourcePoint" />
            <mxPoint x="220" y="240" as="targetPoint" />
          </mxGeometry>
        </mxCell>
        <mxCell id="d1mt9CwGBti9nhYZFLhf-15" value="" style="edgeStyle=orthogonalEdgeStyle;rounded=0;orthogonalLoop=1;jettySize=auto;html=1;entryX=0.5;entryY=0;entryDx=0;entryDy=0;" parent="WIyWlLk6GJQsqaUBKTNV-1" source="d1mt9CwGBti9nhYZFLhf-9" target="d1mt9CwGBti9nhYZFLhf-20" edge="1">
          <mxGeometry relative="1" as="geometry">
            <mxPoint x="260" y="320" as="targetPoint" />
          </mxGeometry>
        </mxCell>
        <mxCell id="d1mt9CwGBti9nhYZFLhf-17" value="" style="edgeStyle=orthogonalEdgeStyle;rounded=0;orthogonalLoop=1;jettySize=auto;html=1;" parent="WIyWlLk6GJQsqaUBKTNV-1" source="d1mt9CwGBti9nhYZFLhf-9" target="d1mt9CwGBti9nhYZFLhf-16" edge="1">
          <mxGeometry relative="1" as="geometry" />
        </mxCell>
        <mxCell id="d1mt9CwGBti9nhYZFLhf-19" value="" style="edgeStyle=orthogonalEdgeStyle;rounded=0;orthogonalLoop=1;jettySize=auto;html=1;entryX=0.5;entryY=0;entryDx=0;entryDy=0;" parent="WIyWlLk6GJQsqaUBKTNV-1" source="d1mt9CwGBti9nhYZFLhf-9" target="d1mt9CwGBti9nhYZFLhf-22" edge="1">
          <mxGeometry relative="1" as="geometry">
            <mxPoint x="610" y="320" as="targetPoint" />
          </mxGeometry>
        </mxCell>
        <mxCell id="d1mt9CwGBti9nhYZFLhf-9" value="Pengumpulan Data" style="rounded=0;whiteSpace=wrap;html=1;" parent="WIyWlLk6GJQsqaUBKTNV-1" vertex="1">
          <mxGeometry x="370" y="150" width="120" height="60" as="geometry" />
        </mxCell>
        <mxCell id="d1mt9CwGBti9nhYZFLhf-26" value="" style="edgeStyle=orthogonalEdgeStyle;rounded=0;orthogonalLoop=1;jettySize=auto;html=1;" parent="WIyWlLk6GJQsqaUBKTNV-1" source="d1mt9CwGBti9nhYZFLhf-16" target="d1mt9CwGBti9nhYZFLhf-25" edge="1">
          <mxGeometry relative="1" as="geometry" />
        </mxCell>
        <mxCell id="d1mt9CwGBti9nhYZFLhf-16" value="Pemotretan Udara dengan&lt;br&gt;ketinggian&amp;nbsp;&lt;span style=&quot;color: rgb(60 , 64 , 67) ; font-family: &amp;#34;arial&amp;#34; , sans-serif ; font-size: 14px ; text-align: left ; background-color: rgb(255 , 255 , 255)&quot;&gt;Â± 70m.&lt;/span&gt;" style="rounded=0;whiteSpace=wrap;html=1;" parent="WIyWlLk6GJQsqaUBKTNV-1" vertex="1">
          <mxGeometry x="370" y="240" width="120" height="60" as="geometry" />
        </mxCell>
        <mxCell id="d1mt9CwGBti9nhYZFLhf-39" value="" style="edgeStyle=orthogonalEdgeStyle;rounded=0;orthogonalLoop=1;jettySize=auto;html=1;" parent="WIyWlLk6GJQsqaUBKTNV-1" source="d1mt9CwGBti9nhYZFLhf-25" target="d1mt9CwGBti9nhYZFLhf-38" edge="1">
          <mxGeometry relative="1" as="geometry" />
        </mxCell>
        <mxCell id="d1mt9CwGBti9nhYZFLhf-25" value="Kontainerisasi melalui docker" style="rounded=0;whiteSpace=wrap;html=1;" parent="WIyWlLk6GJQsqaUBKTNV-1" vertex="1">
          <mxGeometry x="370" y="330" width="120" height="60" as="geometry" />
        </mxCell>
        <mxCell id="d1mt9CwGBti9nhYZFLhf-41" value="" style="edgeStyle=orthogonalEdgeStyle;rounded=0;orthogonalLoop=1;jettySize=auto;html=1;" parent="WIyWlLk6GJQsqaUBKTNV-1" source="d1mt9CwGBti9nhYZFLhf-38" target="d1mt9CwGBti9nhYZFLhf-40" edge="1">
          <mxGeometry relative="1" as="geometry" />
        </mxCell>
        <mxCell id="d1mt9CwGBti9nhYZFLhf-38" value="&lt;i&gt;Localhost&lt;/i&gt; melalui &lt;i&gt;Docker-ip machine&lt;/i&gt; ke &lt;i&gt;Web Browser&lt;/i&gt;" style="rounded=0;whiteSpace=wrap;html=1;" parent="WIyWlLk6GJQsqaUBKTNV-1" vertex="1">
          <mxGeometry x="370" y="420" width="120" height="60" as="geometry" />
        </mxCell>
        <mxCell id="d1mt9CwGBti9nhYZFLhf-43" value="" style="edgeStyle=orthogonalEdgeStyle;rounded=0;orthogonalLoop=1;jettySize=auto;html=1;" parent="WIyWlLk6GJQsqaUBKTNV-1" source="d1mt9CwGBti9nhYZFLhf-40" edge="1">
          <mxGeometry relative="1" as="geometry">
            <mxPoint x="430" y="600" as="targetPoint" />
          </mxGeometry>
        </mxCell>
        <mxCell id="d1mt9CwGBti9nhYZFLhf-40" value="Terhubung ke localhost dan melakukan pengolahan data" style="rounded=0;whiteSpace=wrap;html=1;" parent="WIyWlLk6GJQsqaUBKTNV-1" vertex="1">
          <mxGeometry x="370" y="510" width="120" height="60" as="geometry" />
        </mxCell>
        <mxCell id="d1mt9CwGBti9nhYZFLhf-37" value="" style="edgeStyle=orthogonalEdgeStyle;rounded=0;orthogonalLoop=1;jettySize=auto;html=1;entryX=0;entryY=0.5;entryDx=0;entryDy=0;" parent="WIyWlLk6GJQsqaUBKTNV-1" source="d1mt9CwGBti9nhYZFLhf-20" target="d1mt9CwGBti9nhYZFLhf-25" edge="1">
          <mxGeometry relative="1" as="geometry">
            <mxPoint x="300" y="370" as="targetPoint" />
            <Array as="points">
              <mxPoint x="280" y="360" />
            </Array>
          </mxGeometry>
        </mxCell>
        <mxCell id="d1mt9CwGBti9nhYZFLhf-20" value="Server Docker" style="shape=parallelogram;perimeter=parallelogramPerimeter;whiteSpace=wrap;html=1;" parent="WIyWlLk6GJQsqaUBKTNV-1" vertex="1">
          <mxGeometry x="220" y="240" width="120" height="60" as="geometry" />
        </mxCell>
        <mxCell id="d1mt9CwGBti9nhYZFLhf-49" value="" style="edgeStyle=orthogonalEdgeStyle;rounded=0;orthogonalLoop=1;jettySize=auto;html=1;entryX=1;entryY=0.5;entryDx=0;entryDy=0;exitX=0.417;exitY=1;exitDx=0;exitDy=0;exitPerimeter=0;" parent="WIyWlLk6GJQsqaUBKTNV-1" source="d1mt9CwGBti9nhYZFLhf-22" target="d1mt9CwGBti9nhYZFLhf-47" edge="1">
          <mxGeometry relative="1" as="geometry">
            <mxPoint x="580" y="710" as="targetPoint" />
            <Array as="points">
              <mxPoint x="580" y="300" />
              <mxPoint x="580" y="700" />
            </Array>
          </mxGeometry>
        </mxCell>
        <mxCell id="d1mt9CwGBti9nhYZFLhf-22" value="Titik GCP &lt;br&gt;Orde-2" style="shape=parallelogram;perimeter=parallelogramPerimeter;whiteSpace=wrap;html=1;" parent="WIyWlLk6GJQsqaUBKTNV-1" vertex="1">
          <mxGeometry x="520" y="240" width="120" height="60" as="geometry" />
        </mxCell>
        <mxCell id="d1mt9CwGBti9nhYZFLhf-46" value="" style="edgeStyle=orthogonalEdgeStyle;rounded=0;orthogonalLoop=1;jettySize=auto;html=1;" parent="WIyWlLk6GJQsqaUBKTNV-1" source="d1mt9CwGBti9nhYZFLhf-44" edge="1">
          <mxGeometry relative="1" as="geometry">
            <mxPoint x="430" y="680" as="targetPoint" />
          </mxGeometry>
        </mxCell>
        <mxCell id="d1mt9CwGBti9nhYZFLhf-44" value="&lt;span style=&quot;white-space: normal&quot;&gt;Melakukan 3D Model&lt;/span&gt;" style="shape=parallelogram;perimeter=parallelogramPerimeter;whiteSpace=wrap;html=1;" parent="WIyWlLk6GJQsqaUBKTNV-1" vertex="1">
          <mxGeometry x="347.5" y="600" width="165" height="50" as="geometry" />
        </mxCell>
        <mxCell id="d1mt9CwGBti9nhYZFLhf-51" value="" style="edgeStyle=orthogonalEdgeStyle;rounded=0;orthogonalLoop=1;jettySize=auto;html=1;" parent="WIyWlLk6GJQsqaUBKTNV-1" source="d1mt9CwGBti9nhYZFLhf-47" edge="1">
          <mxGeometry relative="1" as="geometry">
            <mxPoint x="430" y="750" as="targetPoint" />
          </mxGeometry>
        </mxCell>
        <mxCell id="d1mt9CwGBti9nhYZFLhf-47" value="Melakukan Georeferencing Data" style="rounded=0;whiteSpace=wrap;html=1;" parent="WIyWlLk6GJQsqaUBKTNV-1" vertex="1">
          <mxGeometry x="355" y="680" width="150" height="40" as="geometry" />
        </mxCell>
        <mxCell id="d1mt9CwGBti9nhYZFLhf-59" value="" style="edgeStyle=orthogonalEdgeStyle;rounded=0;orthogonalLoop=1;jettySize=auto;html=1;" parent="WIyWlLk6GJQsqaUBKTNV-1" source="d1mt9CwGBti9nhYZFLhf-54" edge="1">
          <mxGeometry relative="1" as="geometry">
            <mxPoint x="430" y="840" as="targetPoint" />
          </mxGeometry>
        </mxCell>
        <mxCell id="d1mt9CwGBti9nhYZFLhf-54" value="3D Model Tergeorefererencing" style="shape=parallelogram;perimeter=parallelogramPerimeter;whiteSpace=wrap;html=1;" parent="WIyWlLk6GJQsqaUBKTNV-1" vertex="1">
          <mxGeometry x="308.75" y="750" width="242.5" height="60" as="geometry" />
        </mxCell>
        <mxCell id="d1mt9CwGBti9nhYZFLhf-62" value="" style="edgeStyle=orthogonalEdgeStyle;rounded=0;orthogonalLoop=1;jettySize=auto;html=1;" parent="WIyWlLk6GJQsqaUBKTNV-1" source="d1mt9CwGBti9nhYZFLhf-60" edge="1">
          <mxGeometry relative="1" as="geometry">
            <mxPoint x="430" y="930" as="targetPoint" />
          </mxGeometry>
        </mxCell>
        <mxCell id="d1mt9CwGBti9nhYZFLhf-60" value="Pembentukan DSM" style="rounded=0;whiteSpace=wrap;html=1;" parent="WIyWlLk6GJQsqaUBKTNV-1" vertex="1">
          <mxGeometry x="340" y="840" width="180" height="60" as="geometry" />
        </mxCell>
        <mxCell id="d1mt9CwGBti9nhYZFLhf-65" value="" style="edgeStyle=orthogonalEdgeStyle;rounded=0;orthogonalLoop=1;jettySize=auto;html=1;" parent="WIyWlLk6GJQsqaUBKTNV-1" source="d1mt9CwGBti9nhYZFLhf-63" edge="1">
          <mxGeometry relative="1" as="geometry">
            <mxPoint x="430" y="1030" as="targetPoint" />
          </mxGeometry>
        </mxCell>
        <mxCell id="d1mt9CwGBti9nhYZFLhf-63" value="DSM" style="shape=parallelogram;perimeter=parallelogramPerimeter;whiteSpace=wrap;html=1;" parent="WIyWlLk6GJQsqaUBKTNV-1" vertex="1">
          <mxGeometry x="370" y="930" width="120" height="60" as="geometry" />
        </mxCell>
        <mxCell id="d1mt9CwGBti9nhYZFLhf-66" value="Selesai (outputnya berupa:tiff,obj dll)" style="rounded=1;whiteSpace=wrap;html=1;" parent="WIyWlLk6GJQsqaUBKTNV-1" vertex="1">
          <mxGeometry x="370" y="1030" width="120" height="60" as="geometry" />
        </mxCell>
      </root>
    </mxGraphModel>
  </diagram>
</mxfile>
